<svg xmlns="http://www.w3.org/2000/svg" width="212" height="244" stroke="#2E2113" stroke-width="0.5" stroke-linejoin="round" fill="none">
<polygon fill="#E4EDF1" points="24.795,49.199 79.12,17.834    184.442,78.642 130.117,110.007  "/>
<path fill="#B6C4CA" d="M178.604,158.208   c0-3.317,0.839-5.861,2.654-7.517c0-0.098,3.185-1.769,3.185-1.769V78.642l-54.325,31.365v111.97l54.325-31.365v-23.118   C181.163,167.018,178.604,163.042,178.604,158.208z" />
<path fill="#A2AEB3" d="M178.604,158.208   c0-3.086,1.046-5.817,2.654-7.517l-51.141,29.167c-3.279,0.476-5.839,4.451-5.839,9.285s2.56,8.81,5.839,9.285v0.048l54.325-30.936   v-0.048C181.163,167.018,178.604,163.042,178.604,158.208z M184.309,148.953c0.045-0.009,0.088-0.022,0.134-0.029v-0.048   L184.309,148.953z" />
<polygon points="24.795,49.199 24.795,33.372    47.642,20.181 47.642,36.009  " />
<polygon fill="#B6C4CA" points="53.022,23.288 53.022,39.114    30.175,52.305 30.175,36.479  " />
<polygon points="88.22,85.817 88.22,69.99    111.066,56.799 111.066,72.627  " />
<polygon fill="#B6C4CA" points="116.447,59.906 116.447,75.732    93.6,88.923 93.6,73.097  " />
<polygon fill="#D2DFE5" points="35.738,33.267 35.738,49.093    93.6,82.5 93.6,66.673  " />
<path fill="#D2DFE5" d="M130.117,179.859v-69.852L93.6,88.923V73.097   l-5.38-3.106v15.827L30.175,52.305V36.479l-5.38-3.106v15.827v2.945v109.025l27.712,15.999l4.243-3.256l25.212,14.555l4.243,8.157   l43.912,25.353v-23.548c-3.279-0.476-5.839-4.451-5.839-9.285S126.838,180.334,130.117,179.859z" />
<polygon fill="#D2DFE5" points="56.272,31.025 56.272,15.198    79.119,2.007 79.119,17.835  " />
<polygon fill="#B6C4CA" points="84.5,5.114 84.5,20.94    61.652,34.131 61.652,18.305  " />
<polygon points="119.697,67.644 119.697,51.816    142.544,38.625 142.544,54.453  " />
<polygon fill="#D2DFE5" points="56.272,15.199 61.652,18.305    61.652,34.132 56.272,31.026  " />
<polygon fill="#B6C4CA" points="147.925,41.732 147.925,57.559    125.077,70.75 125.077,54.923  " />
<polygon fill="#D2DFE5" points="67.216,15.093 67.216,30.919    125.077,64.326 125.077,48.499  " />
<polygon fill="#D2DFE5" points="119.697,51.816 125.077,54.923    125.077,70.75 119.697,67.644  " />
<polygon fill="#B6C4CA" points="94.774,31.004 94.774,46.831    85.689,52.076 71.983,44.163  " />
<polygon fill="#E4EDF1" points="142.544,38.625 133.946,43.589    75.902,10.078 84.5,5.114 79.119,2.007 56.272,15.198 61.652,18.305 67.216,15.093 89.985,28.239 67.194,41.397 44.425,28.251    53.022,23.288 47.642,20.181 24.795,33.372 30.175,36.479 35.738,33.267 93.783,66.778 88.22,69.99 93.6,73.097 116.447,59.906    111.066,56.799 102.469,61.763 71.983,44.163 94.775,31.004 125.261,48.604 119.697,51.816 125.077,54.923 147.925,41.732  " />
<g stroke-dasharray="2 3">
<path d="M130.117,235.673c0,3.257,0,7.934,0,7.934    S130.117,238.93,130.117,235.673c0-3.259,0-7.076,0-7.076S130.117,232.415,130.117,235.673z" />
<path d="M24.795,174.866c0,3.257,0,7.934,0,7.934    S24.795,178.123,24.795,174.866c0-3.259,0-7.076,0-7.076S24.795,171.607,24.795,174.866z" />
</g>
<g fill="#2E2113" stroke="none">
<path d="M145.672,5.306c0,0.588,0.028,1.162,0.098,1.624h-1.105l-0.112-0.854h-0.042    c-0.364,0.532-1.105,1.008-2.072,1.008c-1.371,0-2.071-0.966-2.071-1.946c0-1.638,1.456-2.534,4.074-2.52v-0.14    c0-0.56-0.154-1.582-1.54-1.568c-0.645,0-1.303,0.182-1.778,0.504l-0.28-0.826c0.561-0.35,1.386-0.588,2.24-0.588    c2.086,0,2.59,1.414,2.59,2.772V5.306z M144.468,3.472c-1.344-0.028-2.87,0.21-2.87,1.526c0,0.812,0.532,1.176,1.148,1.176    c0.896,0,1.47-0.56,1.666-1.134c0.042-0.126,0.056-0.266,0.056-0.392V3.472z" />
<path d="M193.735,46.193h-0.027l-1.582,0.854l-0.238-0.938l1.988-1.064h1.05v9.1h-1.19V46.193z" />
<path d="M205.854,106.043h1.231v4.242h0.028c0.434-0.756,1.218-1.232,2.31-1.232c1.681,0,2.856,1.4,2.856,3.444    c0,2.436-1.54,3.64-3.053,3.64c-0.979,0-1.75-0.378-2.268-1.274h-0.028l-0.069,1.12h-1.064c0.042-0.462,0.057-1.148,0.057-1.75    V106.043z M207.085,113.268c0,0.154,0.014,0.308,0.042,0.448c0.238,0.854,0.966,1.442,1.848,1.442c1.303,0,2.059-1.05,2.059-2.604    c0-1.372-0.7-2.534-2.017-2.534c-0.84,0-1.624,0.588-1.861,1.512c-0.042,0.154-0.07,0.322-0.07,0.518V113.268z" />
<path d="M205.329,174.493v-0.756l0.966-0.938c2.324-2.213,3.389-3.389,3.389-4.761    c0-0.924-0.435-1.778-1.792-1.778c-0.826,0-1.513,0.42-1.933,0.771l-0.392-0.868c0.616-0.518,1.525-0.924,2.576-0.924    c1.945,0,2.771,1.344,2.771,2.646c0,1.68-1.218,3.037-3.136,4.885l-0.714,0.673v0.028h4.074v1.021H205.329z" />
<path d="M75.266,220.202c-0.321,0.153-1.035,0.392-1.945,0.392c-2.044,0-3.374-1.386-3.374-3.458    c0-2.086,1.428-3.612,3.64-3.612c0.729,0,1.372,0.183,1.708,0.364l-0.28,0.938c-0.294-0.153-0.756-0.322-1.428-0.322    c-1.554,0-2.394,1.162-2.394,2.563c0,1.568,1.008,2.534,2.352,2.534c0.7,0,1.162-0.168,1.512-0.321L75.266,220.202z" />
<path d="M4.227,140.623v-2.492H0v-0.798l4.059-5.81h1.33v5.656h1.275v0.951H5.389v2.492H4.227z M4.227,137.179    v-3.039c0-0.476,0.016-0.951,0.043-1.428H4.227c-0.279,0.532-0.504,0.924-0.756,1.344l-2.225,3.094v0.029H4.227z" />
<path d="M0.713,117.936c0.352,0.21,1.148,0.56,2.018,0.56c1.566,0,2.07-0.994,2.057-1.764    c-0.014-1.274-1.162-1.82-2.352-1.82H1.75v-0.924h0.686c0.896,0,2.029-0.462,2.029-1.54c0-0.728-0.461-1.372-1.596-1.372    c-0.729,0-1.428,0.322-1.82,0.602l-0.336-0.896c0.49-0.35,1.414-0.7,2.395-0.7c1.793,0,2.604,1.064,2.604,2.17    c0,0.952-0.574,1.75-1.68,2.156v0.028c1.121,0.21,2.029,1.05,2.029,2.324c0,1.456-1.146,2.73-3.316,2.73    c-1.023,0-1.918-0.322-2.367-0.616L0.713,117.936z" />
<circle cx="164.452" cy="112.916" r="1.316" />
<circle cx="160.173" cy="76.001" r="1.316" />
<circle cx="65.987" cy="179.246" r="1.316" />
<circle cx="44.701" cy="172.662" r="1.316" />
<circle cx="161.111" cy="172.355" r="1.316" />
<circle cx="109.617" cy="33.442" r="1.316" />
<polygon points="130.121,236.793 124.796,236.066 126.835,234.896 126.828,232.545     " />
<polygon points="25.126,176.174 30.451,176.901 28.412,178.071 28.419,180.421     " />
</g>
<polyline points="136.284,4.793 109.617,4.793 109.617,33.442    " />
<line x1="201.369" y1="112.916" x2="164.452" y2="112.916" />
<polyline points="186.84,52.008 160.173,52.008 160.173,76.001    " />
<polyline points="8.842,117.199 65.987,117.199 65.987,179.246    " />
<polyline points="8.842,138.486 44.701,138.486 44.701,172.662    " />
<line x1="201.107" y1="172.356" x2="161.111" y2="172.356" />
<line x1="28.184" y1="177.939" x2="127.063" y2="235.028" />
</svg>
